<svg width="83" height="79" viewBox="0 0 83 79" fill="none" xmlns="http://www.w3.org/2000/svg">
<path d="M81 49.7662V77.0001H2V49.7663C2.82739 49.539 4.04798 49.2707 5.58966 49.1195C8.71633 48.8129 13.1702 48.9868 18.3695 50.9719C19.8888 51.552 21.523 52.4308 23.3043 53.4797C24.0308 53.9075 24.8351 54.3967 25.6634 54.9005C26.7301 55.5493 27.8367 56.2224 28.8685 56.8199C32.6671 59.0194 36.9975 61.1491 41.5 61.1491C46.0026 61.1491 50.3331 59.0194 54.1318 56.8198C55.1637 56.2223 56.2704 55.5492 57.3371 54.9003C58.1654 54.3965 58.9697 53.9073 59.6962 53.4795C61.4776 52.4306 63.1117 51.5518 64.6311 50.9717C69.8302 48.9866 74.2839 48.8127 77.4105 49.1194C78.9521 49.2706 80.1726 49.5389 81 49.7662ZM0.780239 50.1629C0.779534 50.1632 0.780724 50.1626 0.78379 50.1614L0.782721 50.1618L0.780239 50.1629Z" stroke="#0F2650" stroke-width="4"/>
<path d="M61.3865 21.2043C60.2821 19.4624 58.7724 18.0674 57.0102 17.1606C55.2481 16.2538 53.296 15.8673 51.3516 16.0403C46.7784 16.6025 45.5865 18.8887 41.5 19.325C37.4135 18.8888 36.2216 16.6025 31.6484 16.0403C29.704 15.8673 27.7519 16.2538 25.9897 17.1606C24.2276 18.0674 22.7179 19.4624 21.6135 21.2043C18.9903 25.5441 19.5661 32.0264 23.3376 36.9863C24.161 38.0347 24.6434 39.3471 24.7105 40.7216C24.9367 47.028 26.044 64.7693 31.3577 65.9706C35.4565 66.8972 33.2893 45.6784 41.5 45.953C49.7106 45.6782 47.5435 66.897 51.6422 65.9706C56.9559 64.7693 58.0634 47.028 58.2895 40.7216C58.3565 39.3471 58.8389 38.0346 59.6624 36.9863C63.4339 32.0264 64.0097 25.5441 61.3865 21.2043V21.2043Z" fill="white"/>
<path d="M60.7081 21.0603C59.565 18.1324 49.3254 13.0102 51.0816 15.8107C53.8738 20.2632 54.9204 28.6207 54.0528 37.7221C53.3072 45.5442 49.0562 62.7295 49.0562 62.7295C48.7239 65.0672 49.9412 67.1359 50.726 66.9931C52.8936 66.5983 57.9673 59.0196 57.7369 40.901C57.771 39.4964 58.2376 38.151 59.0539 37.1038C60.6259 34.8844 61.616 32.1979 61.9089 29.3575C62.2017 26.517 61.7853 23.6396 60.7081 21.0603V21.0603Z" fill="#D0CFCE"/>
<path d="M61.3865 21.2043C60.2821 19.4624 58.7724 18.0674 57.0102 17.1606C55.2481 16.2538 53.296 15.8673 51.3516 16.0403C46.7784 16.6025 45.5865 18.8887 41.5 19.325C37.4135 18.8888 36.2216 16.6025 31.6484 16.0403C29.704 15.8673 27.7519 16.2538 25.9897 17.1606C24.2276 18.0674 22.7179 19.4624 21.6135 21.2043C18.9903 25.5441 19.5661 32.0264 23.3376 36.9863C24.161 38.0347 24.6434 39.3471 24.7105 40.7216C24.9367 47.028 26.044 64.7693 31.3577 65.9706C35.4565 66.8972 33.2893 45.6784 41.5 45.953C49.7106 45.6782 47.5435 66.897 51.6422 65.9706C56.9559 64.7693 58.0634 47.028 58.2895 40.7216C58.3565 39.3471 58.8389 38.0346 59.6624 36.9863C63.4339 32.0264 64.0097 25.5441 61.3865 21.2043V21.2043Z" stroke="#0F2650" stroke-width="4" stroke-miterlimit="10"/>
<path d="M42.2355 22.5204L43.4693 20.7723L44.6758 19.0628" stroke="#0F2650" stroke-width="0.55767" stroke-linecap="round"/>
<path d="M40.2255 22.0482C38.6694 22.3204 37.6302 23.7928 37.9045 25.3369C38.1788 26.881 39.6627 27.9121 41.2188 27.64C42.775 27.3678 43.8141 25.8954 43.5399 24.3513C43.2656 22.8072 41.7817 21.776 40.2255 22.0482Z" fill="#D0CFCE"/>
<path fill-rule="evenodd" clip-rule="evenodd" d="M46.6694 19.1335L43.9994 17.2782L55.4879 1.00004L58.1579 2.85539L46.6694 19.1335Z" fill="#0F2650"/>
<path d="M42.8229 18.9361L45.5012 20.7973L46.6735 19.1363L43.9951 17.2751L42.8229 18.9361Z" fill="#01CFC9"/>
</svg>
