<svg width="22" height="25" viewBox="0 0 22 25" fill="none" xmlns="http://www.w3.org/2000/svg">
<path d="M21 10.0197C21 17.035 11 23.0482 11 23.0482C11 23.0482 1 17.035 1 10.0197C1 7.62753 2.05357 5.33333 3.92893 3.64181C5.8043 1.95029 8.34784 1 11 1C13.6522 1 16.1957 1.95029 18.0711 3.64181C19.9464 5.33333 21 7.62753 21 10.0197Z" fill="#01CFC9" stroke="#0F2650" stroke-width="2" stroke-linecap="round" stroke-linejoin="round"/>
<path d="M10.5 12.9428C12.433 12.9428 14 11.7089 14 10.1868C14 8.6647 12.433 7.43079 10.5 7.43079C8.567 7.43079 7 8.6647 7 10.1868C7 11.7089 8.567 12.9428 10.5 12.9428Z" fill="#0F2650" stroke="#0F2650" stroke-width="2" stroke-linecap="round" stroke-linejoin="round"/>
</svg>
