<svg width="25" height="22" viewBox="0 0 25 22" fill="none" xmlns="http://www.w3.org/2000/svg">
<path d="M23.3741 15.8489V18.8346C23.3754 19.1118 23.3112 19.3861 23.1857 19.6401C23.0602 19.8941 22.8761 20.122 22.6452 20.3094C22.4143 20.4968 22.1418 20.6394 21.845 20.7282C21.5482 20.817 21.2337 20.85 20.9216 20.8251C17.4598 20.4923 14.1345 19.4458 11.2129 17.7697C8.49469 16.2417 6.19013 14.203 4.46288 11.7983C2.56161 9.20198 1.3784 6.24594 1.00913 3.1697C0.981018 2.89448 1.01799 2.61711 1.11769 2.35523C1.2174 2.09334 1.37765 1.8527 1.58824 1.64861C1.79884 1.44452 2.05516 1.28146 2.3409 1.1698C2.62663 1.05815 2.93551 1.00036 3.24788 1.0001H6.62288C7.16885 0.995343 7.69815 1.16638 8.11211 1.48132C8.52608 1.79627 8.79647 2.23363 8.87288 2.71189C9.01533 3.66738 9.27951 4.60554 9.66038 5.50849C9.81174 5.8647 9.8445 6.25184 9.75478 6.62402C9.66505 6.9962 9.4566 7.33783 9.15413 7.60842L7.72538 8.87236C9.32688 11.364 11.6589 13.427 14.4754 14.8437L15.9041 13.5798C16.21 13.3122 16.5962 13.1278 17.0169 13.0484C17.4376 12.9691 17.8752 12.998 18.2779 13.1319C19.2986 13.4689 20.3591 13.7026 21.4391 13.8286C21.9856 13.8968 22.4847 14.1403 22.8415 14.5128C23.1983 14.8853 23.3878 15.3608 23.3741 15.8489Z" fill="#01CFC9" stroke="#01CFC9" stroke-width="2" stroke-linecap="round" stroke-linejoin="round"/>
</svg>
