<svg width="54" height="62" viewBox="0 0 54 62" fill="none" xmlns="http://www.w3.org/2000/svg">
<path d="M50.1238 8.77832C48.8396 6.79768 47.0842 5.21155 45.0352 4.18048C42.9861 3.14941 40.7163 2.71002 38.4554 2.90677C33.1376 3.546 31.7518 6.14535 27 6.64144C22.2483 6.14547 20.8623 3.546 15.5446 2.90677C13.2837 2.71005 11.0138 3.14947 8.96481 4.18053C6.91579 5.2116 5.16034 6.79771 3.87614 8.77832C0.825977 13.7127 1.49545 21.0832 5.88091 26.7227C6.83834 27.9147 7.39927 29.4071 7.47733 30.9699C7.74034 38.1404 9.02796 58.3126 15.2066 59.6784C19.9726 60.732 17.4527 36.6059 27 36.918C36.5473 36.6056 34.0273 60.7318 38.7932 59.6784C44.972 58.3126 46.2597 38.1404 46.5226 30.9699C46.6006 29.4071 47.1616 27.9147 48.119 26.7227C52.5045 21.0832 53.1741 13.7127 50.1238 8.77832Z" fill="white"/>
<path d="M50.1239 8.77829C48.7383 5.50351 36.3267 -0.225596 38.4554 2.90674C41.8399 7.88673 43.1085 17.2344 42.0569 27.4143C41.153 36.1632 36.0003 55.3846 36.0003 55.3846C35.5976 57.9993 37.0732 60.3132 38.0243 60.1534C40.6518 59.7119 46.8017 51.2351 46.5224 30.9699C46.5637 29.3988 47.1293 27.894 48.1188 26.7227C50.0242 24.2403 51.2243 21.2356 51.5793 18.0586C51.9343 14.8816 51.4296 11.6631 50.1239 8.77829Z" fill="#D0CFCE"/>
<path d="M50.1238 8.77832C48.8396 6.79769 47.0842 5.21155 45.0352 4.18048C42.9861 3.14941 40.7163 2.71002 38.4554 2.90677C33.1376 3.546 31.7518 6.14535 27 6.64144C22.2483 6.14547 20.8623 3.546 15.5446 2.90677C13.2837 2.71005 11.0138 3.14947 8.96481 4.18053C6.91579 5.2116 5.16034 6.79771 3.87614 8.77832C0.825977 13.7127 1.49545 21.0832 5.88091 26.7227C6.83834 27.9147 7.39927 29.4071 7.47733 30.9699C7.74034 38.1404 9.02796 58.3126 15.2066 59.6784C19.9726 60.732 17.4527 36.6059 27 36.918C36.5473 36.6056 34.0273 60.7318 38.7932 59.6784C44.972 58.3126 46.2597 38.1404 46.5226 30.9699C46.6006 29.4071 47.1616 27.9147 48.119 26.7227C52.5045 21.0832 53.1741 13.7127 50.1238 8.77832V8.77832Z" stroke="#0F2650" stroke-width="4" stroke-miterlimit="10"/>
</svg>
