<svg width="80" height="78" viewBox="0 0 80 78" fill="none" xmlns="http://www.w3.org/2000/svg">
<path d="M40.0063 39.7061V39.706L39.9924 39.7061C38.5178 39.7117 37.3986 40.507 36.6216 41.4015C35.8587 42.2798 35.268 43.4219 34.7873 44.598C33.8227 46.958 33.0795 50.0277 32.4183 52.9144C32.3177 53.3536 32.219 53.7885 32.1216 54.2175C31.5592 56.6955 31.0415 58.9765 30.4637 60.7407C30.1226 61.7822 29.8082 62.4872 29.5373 62.8968C29.5269 62.9125 29.517 62.9272 29.5074 62.9411C29.299 62.8649 29.0139 62.6972 28.6472 62.3419C28.0534 61.7668 27.4036 60.8452 26.7338 59.5587C25.3985 56.9939 24.1903 53.3856 23.1737 49.3844C21.1406 41.3817 20 32.324 20 28.0893C20 23.9747 21.0898 20.3782 22.8674 17.8684C24.6216 15.3916 27.0053 14 29.8049 14C31.0281 14 32.3417 14.5174 34.1315 15.2651C34.1829 15.2866 34.2349 15.3083 34.2872 15.3302C35.8734 15.9938 37.8944 16.8393 40 16.8393C42.1056 16.8393 44.1266 15.9938 45.7128 15.3302C45.7651 15.3083 45.8171 15.2866 45.8685 15.2651C47.6583 14.5174 48.9719 14 50.1951 14C52.9947 14 55.3784 15.3916 57.1326 17.8684C58.9102 20.3782 60 23.9747 60 28.0893C60 32.324 58.8594 41.3817 56.8263 49.3844C55.8097 53.3856 54.6015 56.9939 53.2662 59.5587C52.5964 60.8452 51.9466 61.7668 51.3528 62.3419C51.006 62.6779 50.7321 62.8462 50.5272 62.9279C50.2834 62.5259 50.0049 61.8352 49.7079 60.8078C49.2505 59.2258 48.8553 57.2481 48.4206 55.0728C48.2833 54.3853 48.142 53.6781 47.9935 52.9574C47.3967 50.0608 46.6854 46.9595 45.6503 44.5619C45.132 43.3615 44.4757 42.1985 43.6025 41.3106C42.6951 40.388 41.493 39.7108 40.0063 39.7061ZM29.3478 63.1367C29.3477 63.1359 29.3542 63.1294 29.3673 63.1196C29.3544 63.1326 29.3478 63.1376 29.3478 63.1367ZM50.6978 63.164C50.6977 63.1648 50.6915 63.1596 50.6795 63.146C50.6918 63.1564 50.6978 63.1632 50.6978 63.164Z" fill="white" stroke="#0F2650" stroke-width="4"/>
<path d="M33.0909 21C29.1747 21 26 24.069 26 27.8548" stroke="#D0CFCE" stroke-width="4.99647" stroke-linecap="round"/>
<path d="M40 9.22577V1M61.5603 17.859L67.5772 12.0425M70.4909 38.7014H79M61.5603 59.5439L67.5772 65.3604M40 68.1771V76.4029M18.4397 59.5439L12.4228 65.3604M9.50909 38.7014H1M18.4397 17.859L12.4228 12.0425" stroke="#0F2650" stroke-width="2" stroke-linecap="round" stroke-linejoin="round"/>
</svg>
