<svg width="58" height="63" viewBox="0 0 58 63" fill="none" xmlns="http://www.w3.org/2000/svg">
<path d="M1.21155 1.30017H56.7948V60.9478H1.21155V1.30017Z" fill="white"/>
<path d="M1.21155 1.30017H56.7948V11.5838H1.21155V1.30017Z" fill="#FFEB97"/>
<path d="M8.48736 6.43854C8.48736 6.69294 8.41706 6.94164 8.28535 7.15317C8.15364 7.36471 7.96643 7.52958 7.7474 7.62693C7.52838 7.72429 7.28736 7.74977 7.05485 7.70013C6.82233 7.6505 6.60874 7.52799 6.44111 7.3481C6.27347 7.1682 6.15931 6.939 6.11306 6.68948C6.06681 6.43996 6.09055 6.18133 6.18127 5.94628C6.27199 5.71124 6.42563 5.51035 6.62275 5.369C6.81987 5.22766 7.05162 5.15222 7.28869 5.15222C7.6066 5.15222 7.91148 5.28774 8.13628 5.52897C8.36107 5.7702 8.48736 6.09738 8.48736 6.43854Z" fill="#0F2650"/>
<path d="M13.282 6.43854C13.282 6.69294 13.2117 6.94164 13.08 7.15317C12.9483 7.36471 12.7611 7.52958 12.5421 7.62693C12.3231 7.72429 12.082 7.74977 11.8495 7.70013C11.617 7.6505 11.4034 7.52799 11.2358 7.3481C11.0682 7.1682 10.954 6.939 10.9077 6.68948C10.8615 6.43996 10.8852 6.18133 10.9759 5.94628C11.0667 5.71124 11.2203 5.51035 11.4174 5.369C11.6145 5.22766 11.8463 5.15222 12.0834 5.15222C12.4013 5.15222 12.7062 5.28774 12.931 5.52897C13.1557 5.7702 13.282 6.09738 13.282 6.43854Z" fill="#0F2650"/>
<path d="M18.0444 6.43854C18.0444 6.69294 17.9741 6.94164 17.8424 7.15317C17.7107 7.36471 17.5235 7.52958 17.3045 7.62693C17.0854 7.72429 16.8444 7.74977 16.6119 7.70013C16.3794 7.6505 16.1658 7.52799 15.9982 7.3481C15.8305 7.1682 15.7164 6.939 15.6701 6.68948C15.6239 6.43996 15.6476 6.18133 15.7383 5.94628C15.8291 5.71124 15.9827 5.51035 16.1798 5.369C16.3769 5.22766 16.6087 5.15222 16.8458 5.15222C17.1637 5.15222 17.4686 5.28774 17.6933 5.52897C17.9181 5.7702 18.0444 6.09738 18.0444 6.43854Z" fill="#0F2650"/>
<path d="M25.9775 47.3308H41.6891V53.8177H25.9775V47.3308Z" fill="#FF8898"/>
<path d="M11.7611 54.454C13.7614 54.454 15.3829 52.7139 15.3829 50.5674C15.3829 48.4209 13.7614 46.6808 11.7611 46.6808C9.76087 46.6808 8.13934 48.4209 8.13934 50.5674C8.13934 52.7139 9.76087 54.454 11.7611 54.454Z" fill="#01CFC9"/>
<path d="M56.7949 62.241H1.21157C1.05277 62.2419 0.895373 62.2091 0.748417 62.1445C0.601462 62.08 0.46785 61.9849 0.355261 61.8647C0.242673 61.7445 0.153329 61.6016 0.0923635 61.4443C0.0313984 61.2869 1.50549e-05 61.1182 1.73255e-05 60.9478V1.30016C-0.000837077 1.12917 0.0299174 0.959692 0.0905012 0.801537C0.151085 0.643382 0.240295 0.499691 0.352969 0.378778C0.465642 0.257865 0.599543 0.162132 0.746921 0.0971187C0.8943 0.032105 1.05223 -0.000898284 1.21157 1.85924e-05H56.7949C56.9537 1.61557e-05 57.1109 0.0336943 57.2575 0.0991172C57.4042 0.16454 57.5373 0.260417 57.6493 0.381238C57.7613 0.502059 57.8499 0.645441 57.9101 0.803142C57.9703 0.960843 58.0008 1.12975 58 1.30016V60.9478C58 61.2908 57.873 61.6197 57.647 61.8622C57.421 62.1048 57.1145 62.241 56.7949 62.241ZM2.41668 59.6476H55.5833V2.59339H2.41668V59.6476Z" fill="#0F2650"/>
<path d="M55.8346 12.877H2.16531C1.86008 12.853 1.57461 12.706 1.36624 12.4655C1.15787 12.225 1.04205 11.9087 1.04205 11.5803C1.04205 11.2519 1.15787 10.9356 1.36624 10.6951C1.57461 10.4546 1.86008 10.3075 2.16531 10.2836H55.8346C56.0007 10.2706 56.1675 10.2944 56.3246 10.3537C56.4818 10.413 56.6258 10.5064 56.7478 10.628C56.8698 10.7497 56.9671 10.8971 57.0336 11.0609C57.1001 11.2248 57.1345 11.4016 57.1345 11.5803C57.1345 11.759 57.1001 11.9358 57.0336 12.0997C56.9671 12.2635 56.8698 12.4109 56.7478 12.5326C56.6258 12.6542 56.4818 12.7476 56.3246 12.8069C56.1675 12.8661 56.0007 12.89 55.8346 12.877Z" fill="#0F2650"/>
<path d="M22.9358 4.98621H53.2569V7.57958H22.9358V4.98621Z" fill="#0F2650"/>
<path d="M8.13934 19.772H42.5333V22.3653H8.13934V19.772Z" fill="#0F2650"/>
<path d="M8.13934 25.8231H42.5333V28.4165H8.13934V25.8231Z" fill="#0F2650"/>
<path d="M8.13934 31.8743H42.5333V34.4676H8.13934V31.8743Z" fill="#0F2650"/>
<path d="M8.13934 37.9255H42.5333V40.5189H8.13934V37.9255Z" fill="#0F2650"/>
<path d="M48.6555 23.6654H51.0722V40.9546H48.6555V23.6654Z" fill="#B7ECEA"/>
<path d="M49.8606 27.9877C49.541 27.9877 49.2345 27.8515 49.0085 27.609C48.7825 27.3664 48.6555 27.0375 48.6555 26.6945V21.0721C48.6778 20.7445 48.8148 20.4382 49.039 20.2146C49.2631 19.991 49.5578 19.8667 49.8639 19.8667C50.1699 19.8667 50.4646 19.991 50.6887 20.2146C50.9129 20.4382 51.0499 20.7445 51.0722 21.0721V26.6876C51.073 26.8586 51.0423 27.0281 50.9817 27.1862C50.9211 27.3444 50.8319 27.4881 50.7192 27.609C50.6066 27.7299 50.4727 27.8256 50.3253 27.8906C50.1779 27.9557 50.02 27.9887 49.8606 27.9877Z" fill="#0F2650"/>
<path d="M41.6891 55.1108H25.9776C25.8193 55.1108 25.6626 55.0774 25.5164 55.0124C25.3702 54.9474 25.2373 54.8522 25.1254 54.7321C25.0135 54.612 24.9248 54.4694 24.8642 54.3125C24.8036 54.1556 24.7725 53.9874 24.7725 53.8176V47.3307C24.7725 47.1603 24.8038 46.9916 24.8648 46.8342C24.9258 46.6769 25.0151 46.534 25.1277 46.4138C25.2403 46.2936 25.3739 46.1985 25.5209 46.1339C25.6678 46.0694 25.8252 46.0366 25.984 46.0375H41.6891C41.8485 46.0366 42.0064 46.0696 42.1538 46.1346C42.3011 46.1996 42.435 46.2953 42.5477 46.4163C42.6604 46.5372 42.7496 46.6809 42.8102 46.839C42.8708 46.9972 42.9015 47.1666 42.9007 47.3376V53.8245C42.8998 53.9944 42.8678 54.1624 42.8065 54.3189C42.7451 54.4755 42.6557 54.6175 42.5432 54.737C42.4307 54.8564 42.2973 54.9509 42.1508 55.0151C42.0042 55.0792 41.8474 55.1118 41.6891 55.1108ZM27.1891 52.5175H40.4776V48.624H27.1891V52.5175Z" fill="#0F2650"/>
<path d="M11.6 53.9422L8.82891 50.9684C8.59818 50.7236 8.46753 50.3904 8.46572 50.0422C8.4639 49.6939 8.59107 49.3592 8.81925 49.1116C9.04742 48.864 9.35791 48.7238 9.68241 48.7218C10.0069 48.7199 10.3188 48.8563 10.5496 49.1012L11.6 50.2561L14.5902 47.0265C14.821 46.7826 15.1326 46.647 15.4565 46.6496C15.7804 46.6522 16.09 46.7927 16.3174 47.0403C16.5447 47.2879 16.671 47.6223 16.6686 47.9699C16.6662 48.3175 16.5352 48.6498 16.3045 48.8937L11.6 53.9422Z" fill="#0F2650"/>
</svg>
