<svg width="42" height="65" viewBox="0 0 42 65" fill="none" xmlns="http://www.w3.org/2000/svg">
<path d="M40 18.2079C40 20.8714 39.668 25.2149 39.0351 30.1315H2.96489C2.332 25.2149 2 20.8714 2 18.2079C2 13.4465 3.06516 9.27133 4.8052 6.35867C6.53709 3.45965 8.79046 2 11.2683 2C12.3313 2 13.51 2.53878 15.2465 3.39882C15.3037 3.42714 15.3617 3.45593 15.4205 3.4851C16.9108 4.22485 18.9018 5.21315 21 5.21315C23.0982 5.21315 25.0892 4.22485 26.5795 3.4851C26.6383 3.45593 26.6963 3.42714 26.7535 3.39882C28.49 2.53878 29.6687 2 30.7317 2C33.2095 2 35.4629 3.45965 37.1948 6.35867C38.9348 9.27133 40 13.4465 40 18.2079Z" fill="white" stroke="#0F2650" stroke-width="4"/>
<path fill-rule="evenodd" clip-rule="evenodd" d="M12.2919 32.1312H29.7065V39.6286L26.6333 43.9128V59.9785L20.9992 64.2627L15.365 59.9785V43.9128L12.2919 39.6286V32.1312Z" fill="#0F2650"/>
<path d="M13.3172 4.28461C8.79115 4.28461 5.12207 8.12081 5.12207 12.853" stroke="#D0CFCE" stroke-width="6.70258" stroke-linecap="round"/>
<path fill-rule="evenodd" clip-rule="evenodd" d="M15.3657 52.481L26.634 55.6941V57.8362L15.3657 54.6231V52.481Z" fill="#D8D8D8"/>
<path fill-rule="evenodd" clip-rule="evenodd" d="M15.3657 48.1974L26.634 51.4106V53.5527L15.3657 50.3395V48.1974Z" fill="#D8D8D8"/>
<path fill-rule="evenodd" clip-rule="evenodd" d="M15.3657 43.9133L26.634 47.1265V49.2686L15.3657 46.0554V43.9133Z" fill="#D8D8D8"/>
</svg>
